<svg width="1336" height="536" viewBox="0 0 1336 536" fill="none" xmlns="http://www.w3.org/2000/svg">
<path d="M187.169 175.722L347 83.4434L506.831 175.722V360.278L347 452.557L187.169 360.278V175.722Z" fill="#C76417" stroke="#D9D9D9" stroke-width="2.5"/>
<path d="M346.5 112L481.167 189.75V345.25L346.5 423L211.833 345.25V189.75L346.5 112Z" fill="#21293D"/>
<path d="M284 326.101L295.295 332.109L289.402 343.623C286.946 348.128 293.33 351.132 295.295 347.127L339 255.015L322.795 243L284 326.101Z" fill="#D9D9D9"/>
<path d="M409 326.101L397.705 332.109L403.598 343.623C406.054 348.128 399.67 351.132 397.705 347.127L354 255.015L370.205 243L409 326.101Z" fill="#D9D9D9"/>
<path fill-rule="evenodd" clip-rule="evenodd" d="M346.5 256C362.792 256 376 242.792 376 226.5C376 210.208 362.792 197 346.5 197C330.208 197 317 210.208 317 226.5C317 242.792 330.208 256 346.5 256ZM346.5 243C355.613 243 363 235.613 363 226.5C363 217.387 355.613 210 346.5 210C337.387 210 330 217.387 330 226.5C330 235.613 337.387 243 346.5 243Z" fill="#D9D9D9"/>
<rect x="339" y="241" width="15" height="16" fill="#21293D"/>
<circle cx="346.5" cy="175.5" r="9.5" fill="#D9D9D9"/>
<rect x="337" y="176" width="19" height="25" fill="#D9D9D9"/>
<circle cx="347" cy="266" r="4" fill="#D9D9D9"/>
<rect x="343" y="266" width="8" height="12" fill="#D9D9D9"/>
<path d="M404.364 250.077C400.107 261.75 392.333 271.842 382.096 278.983C371.86 286.125 359.656 289.971 347.14 290C334.624 290.028 322.403 286.238 312.133 279.143C301.864 272.048 294.043 261.991 289.732 250.338L302.783 245.589C306.112 254.587 312.15 262.351 320.079 267.829C328.008 273.308 337.445 276.234 347.108 276.212C356.772 276.19 366.194 273.221 374.098 267.706C382.002 262.192 388.004 254.4 391.291 245.387L404.364 250.077Z" fill="#D9D9D9"/>
<mask id="path-12-outside-1_26_11" maskUnits="userSpaceOnUse" x="567" y="139" width="583" height="232" fill="black">
<rect fill="white" x="567" y="139" width="583" height="232"/>
<path d="M685.8 345.2C680.467 352.4 673.667 358 665.4 362C657.133 365.733 648.333 367.6 639 367.6C624.067 367.6 611.4 364 601 356.8C590.867 349.6 583.133 340 577.8 328C572.733 316 570.2 302.8 570.2 288.4C570.2 273.467 573 260.133 578.6 248.4C584.2 236.4 592.2 226.933 602.6 220C613.267 213.067 625.667 209.6 639.8 209.6C651.533 209.6 661.4 211.733 669.4 216C677.667 220.267 684.2 225.333 689 231.2C691.133 225.067 694.6 220.667 699.4 218C704.467 215.067 710.467 213.6 717.4 213.6H719.4C722.333 213.6 723.8 215.2 723.8 218.4V359.6C723.8 362.533 722.333 364 719.4 364H689.8C687.133 364 685.8 362.533 685.8 359.6V345.2ZM647.4 331.6C652.467 331.6 657.933 330.533 663.8 328.4C669.933 326 675.133 321.733 679.4 315.6C683.667 309.467 685.8 300.4 685.8 288.4C685.8 276.4 683.667 267.467 679.4 261.6C675.133 255.467 670.067 251.467 664.2 249.6C658.333 247.467 652.867 246.4 647.8 246.4C642.467 246.4 636.733 247.6 630.6 250C624.733 252.4 619.667 256.667 615.4 262.8C611.4 268.933 609.4 277.467 609.4 288.4C609.4 299.867 611.533 308.8 615.8 315.2C620.333 321.333 625.533 325.6 631.4 328C637.267 330.4 642.6 331.6 647.4 331.6ZM818.156 308L786.956 359.2C784.823 362.4 782.29 364 779.356 364H749.756C748.69 364 747.89 363.6 747.356 362.8C747.09 361.733 747.223 360.667 747.756 359.6L794.556 285.2L752.956 218.4C752.423 217.333 752.29 216.267 752.556 215.2C752.823 214.133 753.623 213.6 754.956 213.6H768.956C775.356 213.6 780.556 214.267 784.556 215.6C788.556 216.933 792.156 219.467 795.356 223.2C798.823 226.933 802.69 232.4 806.956 239.6L819.356 258.8L844.156 218.8C846.823 215.333 849.756 213.6 852.956 213.6H880.156C881.756 213.6 882.69 214.133 882.956 215.2C883.49 216.267 883.49 217.333 882.956 218.4L843.756 282.8L891.356 359.6C891.89 360.667 891.89 361.733 891.356 362.8C891.09 363.6 890.29 364 888.956 364H858.156C854.69 364 852.023 362.4 850.156 359.2L818.156 308ZM985.672 325.6C986.205 325.333 986.739 324.933 987.272 324.4C988.072 323.867 988.872 323.6 989.672 323.6C991.272 323.6 992.339 324.267 992.872 325.6C993.672 326.667 994.072 327.867 994.072 329.2C994.072 334.533 992.872 340.267 990.472 346.4C988.072 352.267 984.072 357.2 978.472 361.2C972.872 365.2 965.139 367.2 955.272 367.2C942.739 367.2 932.739 363.067 925.272 354.8C918.072 346.533 914.472 333.733 914.472 316.4V146.4C914.472 143.2 915.805 141.6 918.472 141.6H920.472C930.872 141.6 938.872 144.267 944.472 149.6C950.072 154.667 952.872 163.2 952.872 175.2V312.8C952.872 326.667 957.805 333.6 967.672 333.6C971.672 333.6 975.005 332.933 977.672 331.6C980.339 330.267 983.005 328.267 985.672 325.6ZM1044.15 302.4C1045.48 313.067 1050.15 321.2 1058.15 326.8C1066.15 332.4 1076.28 335.2 1088.55 335.2C1098.68 335.2 1107.08 334.133 1113.75 332C1120.41 329.867 1127.08 326.933 1133.75 323.2C1136.15 321.6 1138.28 320.8 1140.15 320.8C1143.08 320.8 1144.55 322.667 1144.55 326.4C1144.55 332 1142.41 338 1138.15 344.4C1134.15 350.8 1127.75 356.4 1118.95 361.2C1110.15 365.733 1098.41 368 1083.75 368C1069.35 368 1056.15 365.067 1044.15 359.2C1032.41 353.067 1023.08 344.133 1016.15 332.4C1009.21 320.4 1005.75 305.733 1005.75 288.4C1005.75 273.2 1008.68 259.733 1014.55 248C1020.68 236.267 1029.21 227.067 1040.15 220.4C1051.35 213.733 1064.41 210.4 1079.35 210.4C1095.35 210.4 1108.28 213.733 1118.15 220.4C1128.28 226.8 1135.61 235.2 1140.15 245.6C1144.95 256 1147.35 267.067 1147.35 278.8C1147.35 282.8 1147.21 286.4 1146.95 289.6C1146.95 292.533 1146.81 295.067 1146.55 297.2C1146.28 300.667 1144.01 302.4 1139.75 302.4H1044.15ZM1044.15 274.8H1108.95C1109.48 270.267 1108.95 265.6 1107.35 260.8C1106.01 255.733 1103.08 251.467 1098.55 248C1094.01 244.533 1087.61 242.8 1079.35 242.8C1069.21 242.8 1061.08 245.733 1054.95 251.6C1049.08 257.2 1045.48 264.933 1044.15 274.8Z"/>
</mask>
<path d="M685.8 345.2C680.467 352.4 673.667 358 665.4 362C657.133 365.733 648.333 367.6 639 367.6C624.067 367.6 611.4 364 601 356.8C590.867 349.6 583.133 340 577.8 328C572.733 316 570.2 302.8 570.2 288.4C570.2 273.467 573 260.133 578.6 248.4C584.2 236.4 592.2 226.933 602.6 220C613.267 213.067 625.667 209.6 639.8 209.6C651.533 209.6 661.4 211.733 669.4 216C677.667 220.267 684.2 225.333 689 231.2C691.133 225.067 694.6 220.667 699.4 218C704.467 215.067 710.467 213.6 717.4 213.6H719.4C722.333 213.6 723.8 215.2 723.8 218.4V359.6C723.8 362.533 722.333 364 719.4 364H689.8C687.133 364 685.8 362.533 685.8 359.6V345.2ZM647.4 331.6C652.467 331.6 657.933 330.533 663.8 328.4C669.933 326 675.133 321.733 679.4 315.6C683.667 309.467 685.8 300.4 685.8 288.4C685.8 276.4 683.667 267.467 679.4 261.6C675.133 255.467 670.067 251.467 664.2 249.6C658.333 247.467 652.867 246.4 647.8 246.4C642.467 246.4 636.733 247.6 630.6 250C624.733 252.4 619.667 256.667 615.4 262.8C611.4 268.933 609.4 277.467 609.4 288.4C609.4 299.867 611.533 308.8 615.8 315.2C620.333 321.333 625.533 325.6 631.4 328C637.267 330.4 642.6 331.6 647.4 331.6ZM818.156 308L786.956 359.2C784.823 362.4 782.29 364 779.356 364H749.756C748.69 364 747.89 363.6 747.356 362.8C747.09 361.733 747.223 360.667 747.756 359.6L794.556 285.2L752.956 218.4C752.423 217.333 752.29 216.267 752.556 215.2C752.823 214.133 753.623 213.6 754.956 213.6H768.956C775.356 213.6 780.556 214.267 784.556 215.6C788.556 216.933 792.156 219.467 795.356 223.2C798.823 226.933 802.69 232.4 806.956 239.6L819.356 258.8L844.156 218.8C846.823 215.333 849.756 213.6 852.956 213.6H880.156C881.756 213.6 882.69 214.133 882.956 215.2C883.49 216.267 883.49 217.333 882.956 218.4L843.756 282.8L891.356 359.6C891.89 360.667 891.89 361.733 891.356 362.8C891.09 363.6 890.29 364 888.956 364H858.156C854.69 364 852.023 362.4 850.156 359.2L818.156 308ZM985.672 325.6C986.205 325.333 986.739 324.933 987.272 324.4C988.072 323.867 988.872 323.6 989.672 323.6C991.272 323.6 992.339 324.267 992.872 325.6C993.672 326.667 994.072 327.867 994.072 329.2C994.072 334.533 992.872 340.267 990.472 346.4C988.072 352.267 984.072 357.2 978.472 361.2C972.872 365.2 965.139 367.2 955.272 367.2C942.739 367.2 932.739 363.067 925.272 354.8C918.072 346.533 914.472 333.733 914.472 316.4V146.4C914.472 143.2 915.805 141.6 918.472 141.6H920.472C930.872 141.6 938.872 144.267 944.472 149.6C950.072 154.667 952.872 163.2 952.872 175.2V312.8C952.872 326.667 957.805 333.6 967.672 333.6C971.672 333.6 975.005 332.933 977.672 331.6C980.339 330.267 983.005 328.267 985.672 325.6ZM1044.15 302.4C1045.48 313.067 1050.15 321.2 1058.15 326.8C1066.15 332.4 1076.28 335.2 1088.55 335.2C1098.68 335.2 1107.08 334.133 1113.75 332C1120.41 329.867 1127.08 326.933 1133.75 323.2C1136.15 321.6 1138.28 320.8 1140.15 320.8C1143.08 320.8 1144.55 322.667 1144.55 326.4C1144.55 332 1142.41 338 1138.15 344.4C1134.15 350.8 1127.75 356.4 1118.95 361.2C1110.15 365.733 1098.41 368 1083.75 368C1069.35 368 1056.15 365.067 1044.15 359.2C1032.41 353.067 1023.08 344.133 1016.15 332.4C1009.21 320.4 1005.75 305.733 1005.75 288.4C1005.75 273.2 1008.68 259.733 1014.55 248C1020.68 236.267 1029.21 227.067 1040.15 220.4C1051.35 213.733 1064.41 210.4 1079.35 210.4C1095.35 210.4 1108.28 213.733 1118.15 220.4C1128.28 226.8 1135.61 235.2 1140.15 245.6C1144.95 256 1147.35 267.067 1147.35 278.8C1147.35 282.8 1147.21 286.4 1146.95 289.6C1146.95 292.533 1146.81 295.067 1146.55 297.2C1146.28 300.667 1144.01 302.4 1139.75 302.4H1044.15ZM1044.15 274.8H1108.95C1109.48 270.267 1108.95 265.6 1107.35 260.8C1106.01 255.733 1103.08 251.467 1098.55 248C1094.01 244.533 1087.61 242.8 1079.35 242.8C1069.21 242.8 1061.08 245.733 1054.95 251.6C1049.08 257.2 1045.48 264.933 1044.15 274.8Z" fill="#282929"/>
<path d="M685.8 345.2H688.3V337.625L683.791 343.712L685.8 345.2ZM665.4 362L666.429 364.278L666.459 364.265L666.489 364.25L665.4 362ZM601 356.8L599.552 358.838L599.564 358.847L599.577 358.855L601 356.8ZM577.8 328L575.497 328.972L575.506 328.994L575.515 329.015L577.8 328ZM578.6 248.4L580.856 249.477L580.861 249.467L580.865 249.457L578.6 248.4ZM602.6 220L601.238 217.904L601.225 217.912L601.213 217.92L602.6 220ZM669.4 216L668.224 218.206L668.238 218.214L668.253 218.222L669.4 216ZM689 231.2L687.065 232.783L689.894 236.24L691.361 232.021L689 231.2ZM699.4 218L700.614 220.185L700.633 220.175L700.653 220.164L699.4 218ZM663.8 328.4L664.654 330.749L664.683 330.739L664.711 330.728L663.8 328.4ZM679.4 315.6L677.348 314.172L679.4 315.6ZM679.4 261.6L677.348 263.028L677.363 263.049L677.378 263.07L679.4 261.6ZM664.2 249.6L663.346 251.949L663.393 251.967L663.442 251.982L664.2 249.6ZM630.6 250L629.689 247.672L629.671 247.679L629.653 247.686L630.6 250ZM615.4 262.8L613.348 261.372L613.326 261.403L613.306 261.434L615.4 262.8ZM615.8 315.2L613.72 316.587L613.754 316.637L613.79 316.686L615.8 315.2ZM683.791 343.712C678.704 350.579 672.223 355.921 664.311 359.75L666.489 364.25C675.11 360.079 682.229 354.221 687.809 346.688L683.791 343.712ZM664.371 359.722C656.437 363.305 647.989 365.1 639 365.1V370.1C648.678 370.1 657.829 368.162 666.429 364.278L664.371 359.722ZM639 365.1C624.481 365.1 612.334 361.606 602.423 354.745L599.577 358.855C610.466 366.394 623.652 370.1 639 370.1V365.1ZM602.448 354.762C592.701 347.837 585.246 338.599 580.085 326.985L575.515 329.015C581.02 341.401 589.032 351.363 599.552 358.838L602.448 354.762ZM580.103 327.028C575.179 315.366 572.7 302.501 572.7 288.4H567.7C567.7 303.099 570.287 316.634 575.497 328.972L580.103 327.028ZM572.7 288.4C572.7 273.784 575.439 260.827 580.856 249.477L576.344 247.323C570.561 259.439 567.7 273.149 567.7 288.4H572.7ZM580.865 249.457C586.284 237.847 593.991 228.744 603.987 222.08L601.213 217.92C590.409 225.123 582.116 234.953 576.335 247.343L580.865 249.457ZM603.962 222.096C614.179 215.455 626.095 212.1 639.8 212.1V207.1C625.239 207.1 612.354 210.678 601.238 217.904L603.962 222.096ZM639.8 212.1C651.24 212.1 660.677 214.181 668.224 218.206L670.576 213.794C662.124 209.286 651.827 207.1 639.8 207.1V212.1ZM668.253 218.222C676.284 222.366 682.525 227.234 687.065 232.783L690.935 229.617C685.875 223.433 679.05 218.167 670.547 213.778L668.253 218.222ZM691.361 232.021C693.332 226.356 696.446 222.501 700.614 220.185L698.186 215.815C692.754 218.833 688.935 223.777 686.639 230.379L691.361 232.021ZM700.653 220.164C705.274 217.488 710.825 216.1 717.4 216.1V211.1C710.108 211.1 703.66 212.645 698.147 215.836L700.653 220.164ZM717.4 216.1H719.4V211.1H717.4V216.1ZM719.4 216.1C720.423 216.1 720.747 216.369 720.857 216.489C721.005 216.651 721.3 217.134 721.3 218.4H726.3C726.3 216.466 725.861 214.549 724.543 213.111C723.187 211.631 721.311 211.1 719.4 211.1V216.1ZM721.3 218.4V359.6H726.3V218.4H721.3ZM721.3 359.6C721.3 360.681 721.031 361.033 720.932 361.132C720.833 361.231 720.481 361.5 719.4 361.5V366.5C721.252 366.5 723.1 366.035 724.468 364.668C725.835 363.3 726.3 361.452 726.3 359.6H721.3ZM719.4 361.5H689.8V366.5H719.4V361.5ZM689.8 361.5C688.917 361.5 688.695 361.268 688.65 361.218C688.564 361.123 688.3 360.737 688.3 359.6H683.3C683.3 361.396 683.703 363.21 684.95 364.582C686.238 365.999 688.017 366.5 689.8 366.5V361.5ZM688.3 359.6V345.2H683.3V359.6H688.3ZM647.4 334.1C652.817 334.1 658.575 332.96 664.654 330.749L662.946 326.051C657.292 328.107 652.117 329.1 647.4 329.1V334.1ZM664.711 330.728C671.366 328.124 676.942 323.511 681.452 317.028L677.348 314.172C673.325 319.956 668.501 323.876 662.889 326.072L664.711 330.728ZM681.452 317.028C686.139 310.291 688.3 300.627 688.3 288.4H683.3C683.3 300.173 681.195 308.642 677.348 314.172L681.452 317.028ZM688.3 288.4C688.3 276.186 686.144 266.622 681.422 260.13L677.378 263.07C681.19 268.311 683.3 276.614 683.3 288.4H688.3ZM681.452 260.172C676.94 253.686 671.454 249.285 664.958 247.218L663.442 251.982C668.679 253.649 673.327 257.247 677.348 263.028L681.452 260.172ZM665.054 247.251C658.975 245.04 653.217 243.9 647.8 243.9V248.9C652.517 248.9 657.692 249.893 663.346 251.949L665.054 247.251ZM647.8 243.9C642.091 243.9 636.047 245.184 629.689 247.672L631.511 252.328C637.42 250.016 642.842 248.9 647.8 248.9V243.9ZM629.653 247.686C623.266 250.299 617.84 254.915 613.348 261.372L617.452 264.228C621.494 258.418 626.201 254.501 631.547 252.314L629.653 247.686ZM613.306 261.434C608.941 268.128 606.9 277.206 606.9 288.4H611.9C611.9 277.727 613.859 269.739 617.494 264.166L613.306 261.434ZM606.9 288.4C606.9 300.132 609.076 309.62 613.72 316.587L617.88 313.813C613.991 307.979 611.9 299.601 611.9 288.4H606.9ZM613.79 316.686C618.539 323.112 624.084 327.708 630.453 330.314L632.347 325.686C626.983 323.492 622.127 319.554 617.81 313.714L613.79 316.686ZM630.453 330.314C636.529 332.799 642.19 334.1 647.4 334.1V329.1C643.01 329.1 638.004 328.001 632.347 325.686L630.453 330.314ZM818.156 308L820.276 306.675L818.129 303.24L816.021 306.699L818.156 308ZM786.956 359.2L789.036 360.587L789.065 360.544L789.091 360.501L786.956 359.2ZM747.356 362.8L744.931 363.406L745.036 363.826L745.276 364.187L747.356 362.8ZM747.756 359.6L745.64 358.269L745.575 358.372L745.52 358.482L747.756 359.6ZM794.556 285.2L796.672 286.531L797.506 285.207L796.678 283.878L794.556 285.2ZM752.956 218.4L750.72 219.518L750.772 219.622L750.834 219.722L752.956 218.4ZM752.556 215.2L754.982 215.806L754.982 215.806L752.556 215.2ZM795.356 223.2L793.458 224.827L793.49 224.865L793.524 224.901L795.356 223.2ZM806.956 239.6L804.806 240.874L804.83 240.916L804.856 240.956L806.956 239.6ZM819.356 258.8L817.256 260.156L819.399 263.475L821.481 260.117L819.356 258.8ZM844.156 218.8L842.175 217.276L842.098 217.376L842.032 217.483L844.156 218.8ZM882.956 215.2L880.531 215.806L880.597 216.073L880.72 216.318L882.956 215.2ZM882.956 218.4L885.092 219.7L885.146 219.611L885.192 219.518L882.956 218.4ZM843.756 282.8L841.621 281.5L840.822 282.812L841.631 284.117L843.756 282.8ZM891.356 359.6L893.592 358.482L893.541 358.38L893.481 358.283L891.356 359.6ZM891.356 362.8L889.12 361.682L889.041 361.841L888.985 362.009L891.356 362.8ZM850.156 359.2L852.316 357.94L852.296 357.907L852.276 357.875L850.156 359.2ZM816.021 306.699L784.821 357.899L789.091 360.501L820.291 309.301L816.021 306.699ZM784.876 357.813C783.046 360.559 781.2 361.5 779.356 361.5V366.5C783.379 366.5 786.6 364.241 789.036 360.587L784.876 357.813ZM779.356 361.5H749.756V366.5H779.356V361.5ZM749.756 361.5C749.645 361.5 749.573 361.49 749.53 361.48C749.509 361.476 749.495 361.472 749.487 361.469C749.478 361.466 749.475 361.464 749.474 361.464C749.474 361.464 749.475 361.464 749.477 361.466C749.479 361.467 749.48 361.468 749.479 361.467C749.478 361.466 749.462 361.452 749.436 361.413L745.276 364.187C746.33 365.767 747.961 366.5 749.756 366.5V361.5ZM749.782 362.194C749.672 361.757 749.702 361.3 749.992 360.718L745.52 358.482C744.744 360.034 744.507 361.71 744.931 363.406L749.782 362.194ZM749.872 360.931L796.672 286.531L792.44 283.869L745.64 358.269L749.872 360.931ZM796.678 283.878L755.078 217.078L750.834 219.722L792.434 286.522L796.678 283.878ZM755.192 217.282C754.902 216.7 754.872 216.243 754.982 215.806L750.131 214.594C749.707 216.29 749.944 217.966 750.72 219.518L755.192 217.282ZM754.982 215.806C754.989 215.778 754.983 215.817 754.936 215.887C754.887 215.961 754.818 216.03 754.743 216.08C754.673 216.127 754.635 216.132 754.663 216.125C754.694 216.117 754.786 216.1 754.956 216.1V211.1C753.981 211.1 752.911 211.292 751.969 211.92C750.978 212.581 750.392 213.55 750.131 214.594L754.982 215.806ZM754.956 216.1H768.956V211.1H754.956V216.1ZM768.956 216.1C775.212 216.1 780.116 216.755 783.766 217.972L785.347 213.228C780.996 211.778 775.501 211.1 768.956 211.1V216.1ZM783.766 217.972C787.269 219.139 790.503 221.38 793.458 224.827L797.254 221.573C793.809 217.554 789.844 214.727 785.347 213.228L783.766 217.972ZM793.524 224.901C796.818 228.448 800.58 233.743 804.806 240.874L809.107 238.325C804.799 231.057 800.828 225.419 797.188 221.499L793.524 224.901ZM804.856 240.956L817.256 260.156L821.456 257.444L809.056 238.244L804.856 240.956ZM821.481 260.117L846.281 220.117L842.032 217.483L817.231 257.483L821.481 260.117ZM846.138 220.324C848.517 217.231 850.793 216.1 852.956 216.1V211.1C848.719 211.1 845.129 213.435 842.175 217.276L846.138 220.324ZM852.956 216.1H880.156V211.1H852.956V216.1ZM880.156 216.1C880.422 216.1 880.603 216.123 880.716 216.146C880.829 216.17 880.849 216.19 880.816 216.171C880.775 216.147 880.701 216.093 880.631 216C880.562 215.908 880.537 215.831 880.531 215.806L885.382 214.594C885.087 213.416 884.37 212.443 883.297 211.829C882.312 211.267 881.194 211.1 880.156 211.1V216.1ZM880.72 216.318C880.902 216.681 880.902 216.919 880.72 217.282L885.192 219.518C886.078 217.748 886.078 215.852 885.192 214.082L880.72 216.318ZM880.821 217.1L841.621 281.5L845.892 284.1L885.092 219.7L880.821 217.1ZM841.631 284.117L889.231 360.917L893.481 358.283L845.881 281.483L841.631 284.117ZM889.12 360.718C889.302 361.081 889.302 361.319 889.12 361.682L893.592 363.918C894.478 362.148 894.478 360.252 893.592 358.482L889.12 360.718ZM888.985 362.009C889.019 361.905 889.085 361.78 889.188 361.664C889.289 361.551 889.386 361.49 889.438 361.464C889.485 361.441 889.481 361.452 889.396 361.468C889.311 361.484 889.169 361.5 888.956 361.5V366.5C890.634 366.5 892.936 365.966 893.728 363.591L888.985 362.009ZM888.956 361.5H858.156V366.5H888.956V361.5ZM858.156 361.5C855.651 361.5 853.772 360.437 852.316 357.94L847.997 360.46C850.274 364.363 853.728 366.5 858.156 366.5V361.5ZM852.276 357.875L820.276 306.675L816.036 309.325L848.036 360.525L852.276 357.875ZM985.672 325.6L984.554 323.364L984.191 323.545L983.904 323.832L985.672 325.6ZM987.272 324.4L985.885 322.32L985.679 322.457L985.504 322.632L987.272 324.4ZM992.872 325.6L990.551 326.528L990.673 326.835L990.872 327.1L992.872 325.6ZM990.472 346.4L992.786 347.347L992.793 347.329L992.8 347.311L990.472 346.4ZM978.472 361.2L979.925 363.234L979.925 363.234L978.472 361.2ZM925.272 354.8L923.387 356.442L923.401 356.459L923.417 356.476L925.272 354.8ZM944.472 149.6L942.748 151.41L942.771 151.432L942.795 151.454L944.472 149.6ZM977.672 331.6L978.79 333.836L978.79 333.836L977.672 331.6ZM986.79 327.836C987.618 327.422 988.364 326.843 989.04 326.168L985.504 322.632C985.113 323.024 984.793 323.244 984.554 323.364L986.79 327.836ZM988.659 326.48C989.132 326.165 989.458 326.1 989.672 326.1V321.1C988.286 321.1 987.012 321.569 985.885 322.32L988.659 326.48ZM989.672 326.1C990.129 326.1 990.306 326.194 990.347 326.22C990.368 326.233 990.452 326.282 990.551 326.528L995.193 324.672C994.758 323.585 994.042 322.634 992.997 321.98C991.971 321.339 990.814 321.1 989.672 321.1V326.1ZM990.872 327.1C991.347 327.734 991.572 328.408 991.572 329.2H996.572C996.572 327.326 995.996 325.599 994.872 324.1L990.872 327.1ZM991.572 329.2C991.572 334.158 990.456 339.58 988.144 345.489L992.8 347.311C995.288 340.953 996.572 334.909 996.572 329.2H991.572ZM988.158 345.453C985.952 350.846 982.269 355.415 977.019 359.166L979.925 363.234C985.875 358.985 990.192 353.687 992.786 347.347L988.158 345.453ZM977.019 359.166C971.991 362.757 964.835 364.7 955.272 364.7V369.7C965.442 369.7 973.753 367.643 979.925 363.234L977.019 359.166ZM955.272 364.7C943.348 364.7 934.058 360.797 927.127 353.124L923.417 356.476C931.419 365.336 942.13 369.7 955.272 369.7V364.7ZM927.157 353.158C920.528 345.547 916.972 333.462 916.972 316.4H911.972C911.972 334.004 915.616 347.52 923.387 356.442L927.157 353.158ZM916.972 316.4V146.4H911.972V316.4H916.972ZM916.972 146.4C916.972 145.086 917.255 144.565 917.392 144.4C917.457 144.323 917.656 144.1 918.472 144.1V139.1C916.621 139.1 914.82 139.677 913.551 141.2C912.355 142.635 911.972 144.514 911.972 146.4H916.972ZM918.472 144.1H920.472V139.1H918.472V144.1ZM920.472 144.1C930.456 144.1 937.754 146.654 942.748 151.41L946.196 147.79C939.99 141.879 931.288 139.1 920.472 139.1V144.1ZM942.795 151.454C947.63 155.829 950.372 163.499 950.372 175.2H955.372C955.372 162.901 952.514 153.505 946.149 147.746L942.795 151.454ZM950.372 175.2V312.8H955.372V175.2H950.372ZM950.372 312.8C950.372 319.954 951.631 325.768 954.535 329.849C957.55 334.087 962.078 336.1 967.672 336.1V331.1C963.399 331.1 960.527 329.646 958.609 326.951C956.58 324.099 955.372 319.513 955.372 312.8H950.372ZM967.672 336.1C971.934 336.1 975.678 335.392 978.79 333.836L976.554 329.364C974.332 330.475 971.41 331.1 967.672 331.1V336.1ZM978.79 333.836C981.751 332.356 984.631 330.176 987.44 327.368L983.904 323.832C981.379 326.357 978.926 328.178 976.554 329.364L978.79 333.836ZM1044.15 302.4V299.9H1041.31L1041.67 302.71L1044.15 302.4ZM1058.15 326.8L1056.71 328.848L1056.71 328.848L1058.15 326.8ZM1113.75 332L1112.98 329.619L1112.98 329.619L1113.75 332ZM1133.75 323.2L1134.97 325.381L1135.05 325.334L1135.13 325.28L1133.75 323.2ZM1138.15 344.4L1136.07 343.013L1136.05 343.044L1136.03 343.075L1138.15 344.4ZM1118.95 361.2L1120.09 363.422L1120.12 363.409L1120.14 363.395L1118.95 361.2ZM1044.15 359.2L1042.99 361.416L1043.02 361.431L1043.05 361.446L1044.15 359.2ZM1016.15 332.4L1013.98 333.651L1013.99 333.661L1013.99 333.672L1016.15 332.4ZM1014.55 248L1012.33 246.842L1012.32 246.862L1012.31 246.882L1014.55 248ZM1040.15 220.4L1038.87 218.252L1038.86 218.259L1038.85 218.265L1040.15 220.4ZM1118.15 220.4L1116.75 222.471L1116.78 222.493L1116.81 222.514L1118.15 220.4ZM1140.15 245.6L1137.86 246.599L1137.87 246.623L1137.88 246.648L1140.15 245.6ZM1146.95 289.6L1144.46 289.392L1144.45 289.496V289.6H1146.95ZM1146.55 297.2L1144.07 296.89L1144.06 296.949L1144.05 297.008L1146.55 297.2ZM1044.15 274.8L1041.67 274.465L1041.29 277.3H1044.15V274.8ZM1108.95 274.8V277.3H1111.17L1111.43 275.092L1108.95 274.8ZM1107.35 260.8L1104.93 261.436L1104.95 261.514L1104.98 261.591L1107.35 260.8ZM1098.55 248L1100.07 246.014L1100.07 246.014L1098.55 248ZM1054.95 251.6L1056.67 253.408L1056.67 253.407L1054.95 251.6ZM1041.67 302.71C1043.08 313.999 1048.07 322.799 1056.71 328.848L1059.58 324.752C1052.22 319.601 1047.88 312.134 1046.63 302.09L1041.67 302.71ZM1056.71 328.848C1065.23 334.81 1075.9 337.7 1088.55 337.7V332.7C1076.66 332.7 1067.06 329.99 1059.58 324.752L1056.71 328.848ZM1088.55 337.7C1098.83 337.7 1107.51 336.62 1114.51 334.381L1112.98 329.619C1106.65 331.647 1098.53 332.7 1088.55 332.7V337.7ZM1114.51 334.381C1121.35 332.192 1128.17 329.189 1134.97 325.381L1132.53 321.019C1125.99 324.678 1119.48 327.541 1112.98 329.619L1114.51 334.381ZM1135.13 325.28C1137.33 323.815 1138.98 323.3 1140.15 323.3V318.3C1137.59 318.3 1134.96 319.385 1132.36 321.12L1135.13 325.28ZM1140.15 323.3C1141.05 323.3 1141.33 323.556 1141.48 323.745C1141.72 324.048 1142.05 324.793 1142.05 326.4H1147.05C1147.05 324.274 1146.64 322.218 1145.41 320.655C1144.09 318.978 1142.18 318.3 1140.15 318.3V323.3ZM1142.05 326.4C1142.05 331.354 1140.16 336.875 1136.07 343.013L1140.23 345.787C1144.67 339.125 1147.05 332.646 1147.05 326.4H1142.05ZM1136.03 343.075C1132.32 349.01 1126.29 354.346 1117.75 359.005L1120.14 363.395C1129.2 358.454 1135.98 352.59 1140.27 345.725L1136.03 343.075ZM1117.8 358.978C1109.49 363.262 1098.19 365.5 1083.75 365.5V370.5C1098.64 370.5 1110.81 368.205 1120.09 363.422L1117.8 358.978ZM1083.75 365.5C1069.7 365.5 1056.88 362.641 1045.24 356.954L1043.05 361.446C1055.42 367.493 1069 370.5 1083.75 370.5V365.5ZM1045.31 356.984C1034 351.073 1025 342.473 1018.3 331.128L1013.99 333.672C1021.16 345.794 1030.83 355.06 1042.99 361.416L1045.31 356.984ZM1018.31 331.149C1011.65 319.614 1008.25 305.403 1008.25 288.4H1003.25C1003.25 306.064 1006.78 321.186 1013.98 333.651L1018.31 331.149ZM1008.25 288.4C1008.25 273.526 1011.12 260.453 1016.78 249.118L1012.31 246.882C1006.24 259.014 1003.25 272.873 1003.25 288.4H1008.25ZM1016.76 249.158C1022.69 237.813 1030.92 228.956 1041.45 222.534L1038.85 218.265C1027.51 225.177 1018.67 234.72 1012.33 246.842L1016.76 249.158ZM1041.43 222.548C1052.19 216.144 1064.8 212.9 1079.35 212.9V207.9C1064.03 207.9 1050.51 211.323 1038.87 218.252L1041.43 222.548ZM1079.35 212.9C1095.02 212.9 1107.41 216.165 1116.75 222.471L1119.55 218.329C1109.15 211.301 1095.68 207.9 1079.35 207.9V212.9ZM1116.81 222.514C1126.55 228.662 1133.53 236.685 1137.86 246.599L1142.44 244.601C1137.69 233.715 1130.01 224.938 1119.48 218.286L1116.81 222.514ZM1137.88 246.648C1142.52 256.711 1144.85 267.419 1144.85 278.8H1149.85C1149.85 266.714 1147.37 255.289 1142.42 244.552L1137.88 246.648ZM1144.85 278.8C1144.85 282.747 1144.72 286.276 1144.46 289.392L1149.44 289.808C1149.71 286.524 1149.85 282.853 1149.85 278.8H1144.85ZM1144.45 289.6C1144.45 292.464 1144.32 294.889 1144.07 296.89L1149.03 297.51C1149.31 295.245 1149.45 292.602 1149.45 289.6H1144.45ZM1144.05 297.008C1143.96 298.2 1143.58 298.772 1143.13 299.114C1142.6 299.518 1141.59 299.9 1139.75 299.9V304.9C1142.17 304.9 1144.43 304.415 1146.17 303.086C1147.99 301.694 1148.86 299.666 1149.04 297.392L1144.05 297.008ZM1139.75 299.9H1044.15V304.9H1139.75V299.9ZM1044.15 277.3H1108.95V272.3H1044.15V277.3ZM1111.43 275.092C1112.01 270.156 1111.42 265.12 1109.72 260.009L1104.98 261.591C1106.47 266.08 1106.95 270.377 1106.46 274.508L1111.43 275.092ZM1109.76 260.164C1108.28 254.511 1105 249.786 1100.07 246.014L1097.03 249.986C1101.16 253.147 1103.75 256.956 1104.93 261.436L1109.76 260.164ZM1100.07 246.014C1094.94 242.094 1087.92 240.3 1079.35 240.3V245.3C1087.3 245.3 1093.09 246.973 1097.03 249.986L1100.07 246.014ZM1079.35 240.3C1068.7 240.3 1059.91 243.398 1053.22 249.793L1056.67 253.407C1062.26 248.069 1069.72 245.3 1079.35 245.3V240.3ZM1053.22 249.792C1046.86 255.866 1043.06 264.168 1041.67 274.465L1046.62 275.135C1047.9 265.699 1051.3 258.534 1056.67 253.408L1053.22 249.792Z" fill="#D9D9D9" mask="url(#path-12-outside-1_26_11)"/>
</svg>
