<svg width="1336" height="536" viewBox="0 0 1336 536" fill="none" xmlns="http://www.w3.org/2000/svg">
<path d="M347 82L508.081 175V361L347 454L185.919 361V175L347 82Z" fill="#C76417"/>
<path d="M346.5 112L481.167 189.75V345.25L346.5 423L211.833 345.25V189.75L346.5 112Z" fill="#21293D"/>
<path d="M284 326.101L295.295 332.109L289.402 343.623C286.946 348.128 293.33 351.132 295.295 347.127L339 255.015L322.795 243L284 326.101Z" fill="#D9D9D9"/>
<path d="M409 326.101L397.705 332.109L403.598 343.623C406.054 348.128 399.67 351.132 397.705 347.127L354 255.015L370.205 243L409 326.101Z" fill="#D9D9D9"/>
<path fill-rule="evenodd" clip-rule="evenodd" d="M346.5 256C362.792 256 376 242.792 376 226.5C376 210.208 362.792 197 346.5 197C330.208 197 317 210.208 317 226.5C317 242.792 330.208 256 346.5 256ZM346.5 243C355.613 243 363 235.613 363 226.5C363 217.387 355.613 210 346.5 210C337.387 210 330 217.387 330 226.5C330 235.613 337.387 243 346.5 243Z" fill="#D9D9D9"/>
<rect x="339" y="241" width="15" height="16" fill="#21293D"/>
<circle cx="346.5" cy="175.5" r="9.5" fill="#D9D9D9"/>
<rect x="337" y="176" width="19" height="25" fill="#D9D9D9"/>
<circle cx="347" cy="266" r="4" fill="#D9D9D9"/>
<rect x="343" y="266" width="8" height="12" fill="#D9D9D9"/>
<path d="M404.364 250.077C400.107 261.75 392.333 271.842 382.096 278.983C371.86 286.125 359.656 289.971 347.14 290C334.624 290.028 322.403 286.238 312.133 279.143C301.864 272.048 294.043 261.991 289.732 250.338L302.783 245.589C306.112 254.587 312.15 262.351 320.079 267.829C328.008 273.308 337.445 276.234 347.108 276.212C356.772 276.19 366.194 273.221 374.098 267.706C382.002 262.192 388.004 254.4 391.291 245.387L404.364 250.077Z" fill="#D9D9D9"/>
<path d="M685.8 345.2C680.467 352.4 673.667 358 665.4 362C657.133 365.733 648.333 367.6 639 367.6C624.067 367.6 611.4 364 601 356.8C590.867 349.6 583.133 340 577.8 328C572.733 316 570.2 302.8 570.2 288.4C570.2 273.467 573 260.133 578.6 248.4C584.2 236.4 592.2 226.933 602.6 220C613.267 213.067 625.667 209.6 639.8 209.6C651.533 209.6 661.4 211.733 669.4 216C677.667 220.267 684.2 225.333 689 231.2C691.133 225.067 694.6 220.667 699.4 218C704.467 215.067 710.467 213.6 717.4 213.6H719.4C722.333 213.6 723.8 215.2 723.8 218.4V359.6C723.8 362.533 722.333 364 719.4 364H689.8C687.133 364 685.8 362.533 685.8 359.6V345.2ZM647.4 331.6C652.467 331.6 657.933 330.533 663.8 328.4C669.933 326 675.133 321.733 679.4 315.6C683.667 309.467 685.8 300.4 685.8 288.4C685.8 276.4 683.667 267.467 679.4 261.6C675.133 255.467 670.067 251.467 664.2 249.6C658.333 247.467 652.867 246.4 647.8 246.4C642.467 246.4 636.733 247.6 630.6 250C624.733 252.4 619.667 256.667 615.4 262.8C611.4 268.933 609.4 277.467 609.4 288.4C609.4 299.867 611.533 308.8 615.8 315.2C620.333 321.333 625.533 325.6 631.4 328C637.267 330.4 642.6 331.6 647.4 331.6ZM818.156 308L786.956 359.2C784.823 362.4 782.29 364 779.356 364H749.756C748.69 364 747.89 363.6 747.356 362.8C747.09 361.733 747.223 360.667 747.756 359.6L794.556 285.2L752.956 218.4C752.423 217.333 752.29 216.267 752.556 215.2C752.823 214.133 753.623 213.6 754.956 213.6H768.956C775.356 213.6 780.556 214.267 784.556 215.6C788.556 216.933 792.156 219.467 795.356 223.2C798.823 226.933 802.69 232.4 806.956 239.6L819.356 258.8L844.156 218.8C846.823 215.333 849.756 213.6 852.956 213.6H880.156C881.756 213.6 882.69 214.133 882.956 215.2C883.49 216.267 883.49 217.333 882.956 218.4L843.756 282.8L891.356 359.6C891.89 360.667 891.89 361.733 891.356 362.8C891.09 363.6 890.29 364 888.956 364H858.156C854.69 364 852.023 362.4 850.156 359.2L818.156 308ZM985.672 325.6C986.205 325.333 986.739 324.933 987.272 324.4C988.072 323.867 988.872 323.6 989.672 323.6C991.272 323.6 992.339 324.267 992.872 325.6C993.672 326.667 994.072 327.867 994.072 329.2C994.072 334.533 992.872 340.267 990.472 346.4C988.072 352.267 984.072 357.2 978.472 361.2C972.872 365.2 965.139 367.2 955.272 367.2C942.739 367.2 932.739 363.067 925.272 354.8C918.072 346.533 914.472 333.733 914.472 316.4V146.4C914.472 143.2 915.805 141.6 918.472 141.6H920.472C930.872 141.6 938.872 144.267 944.472 149.6C950.072 154.667 952.872 163.2 952.872 175.2V312.8C952.872 326.667 957.805 333.6 967.672 333.6C971.672 333.6 975.005 332.933 977.672 331.6C980.339 330.267 983.005 328.267 985.672 325.6ZM1044.15 302.4C1045.48 313.067 1050.15 321.2 1058.15 326.8C1066.15 332.4 1076.28 335.2 1088.55 335.2C1098.68 335.2 1107.08 334.133 1113.75 332C1120.41 329.867 1127.08 326.933 1133.75 323.2C1136.15 321.6 1138.28 320.8 1140.15 320.8C1143.08 320.8 1144.55 322.667 1144.55 326.4C1144.55 332 1142.41 338 1138.15 344.4C1134.15 350.8 1127.75 356.4 1118.95 361.2C1110.15 365.733 1098.41 368 1083.75 368C1069.35 368 1056.15 365.067 1044.15 359.2C1032.41 353.067 1023.08 344.133 1016.15 332.4C1009.21 320.4 1005.75 305.733 1005.75 288.4C1005.75 273.2 1008.68 259.733 1014.55 248C1020.68 236.267 1029.21 227.067 1040.15 220.4C1051.35 213.733 1064.41 210.4 1079.35 210.4C1095.35 210.4 1108.28 213.733 1118.15 220.4C1128.28 226.8 1135.61 235.2 1140.15 245.6C1144.95 256 1147.35 267.067 1147.35 278.8C1147.35 282.8 1147.21 286.4 1146.95 289.6C1146.95 292.533 1146.81 295.067 1146.55 297.2C1146.28 300.667 1144.01 302.4 1139.75 302.4H1044.15ZM1044.15 274.8H1108.95C1109.48 270.267 1108.95 265.6 1107.35 260.8C1106.01 255.733 1103.08 251.467 1098.55 248C1094.01 244.533 1087.61 242.8 1079.35 242.8C1069.21 242.8 1061.08 245.733 1054.95 251.6C1049.08 257.2 1045.48 264.933 1044.15 274.8Z" fill="white"/>
</svg>
