<svg width="372" height="372" viewBox="0 0 372 372" fill="none" xmlns="http://www.w3.org/2000/svg">
<path d="M186 0L347.081 93V279L186 372L24.9193 279V93L186 0Z" fill="#C76417"/>
<path d="M185.5 30L320.167 107.75V263.25L185.5 341L50.8331 263.25V107.75L185.5 30Z" fill="#21293D"/>
<path d="M123 244.101L134.295 250.109L128.402 261.623C125.946 266.128 132.33 269.132 134.295 265.127L178 173.015L161.795 161L123 244.101Z" fill="#D9D9D9"/>
<path d="M248 244.101L236.705 250.109L242.598 261.623C245.054 266.128 238.67 269.132 236.705 265.127L193 173.015L209.205 161L248 244.101Z" fill="#D9D9D9"/>
<path fill-rule="evenodd" clip-rule="evenodd" d="M185.5 174C201.792 174 215 160.792 215 144.5C215 128.208 201.792 115 185.5 115C169.208 115 156 128.208 156 144.5C156 160.792 169.208 174 185.5 174ZM185.5 161C194.613 161 202 153.613 202 144.5C202 135.387 194.613 128 185.5 128C176.387 128 169 135.387 169 144.5C169 153.613 176.387 161 185.5 161Z" fill="#D9D9D9"/>
<rect x="178" y="159" width="15" height="15" fill="#21293D"/>
<circle cx="185.5" cy="93.5" r="9.5" fill="#D9D9D9"/>
<rect x="176" y="94" width="19" height="25" fill="#D9D9D9"/>
<circle cx="186" cy="184" r="4" fill="#D9D9D9"/>
<rect x="182" y="184" width="8" height="12" fill="#D9D9D9"/>
<path d="M243.364 168.077C239.107 179.75 231.333 189.842 221.096 196.983C210.86 204.125 198.656 207.971 186.14 208C173.624 208.028 161.403 204.238 151.133 197.143C140.864 190.048 133.043 179.991 128.732 168.338L141.783 163.589C145.112 172.587 151.15 180.351 159.079 185.829C167.008 191.308 176.445 194.234 186.108 194.212C195.772 194.19 205.194 191.221 213.098 185.706C221.002 180.192 227.004 172.4 230.291 163.387L243.364 168.077Z" fill="#D9D9D9"/>
</svg>
